<svg width="50" height="51" viewBox="0 0 50 51" fill="none" xmlns="http://www.w3.org/2000/svg">
<circle cx="25.0401" cy="25.8531" r="23.9581" stroke="#FF00F7" stroke-width="2"/>
<path d="M33.676 25.5397C33.535 25.5929 33.4469 25.7348 33.4469 25.8855V30.4952C33.4469 30.4952 33.4469 30.5041 33.4381 30.5041L25.915 34.1132C25.9062 34.1132 25.9062 34.1132 25.9062 34.1043V24.4829C25.9062 24.4829 25.9062 24.4741 25.915 24.4741L33.9403 20.6166C34.1076 20.5368 34.1693 20.3417 34.09 20.1555L34.0636 20.1023V20.0846C34.0548 20.0757 34.0372 20.058 34.0107 20.0402L33.9931 20.0225C33.9755 20.0136 33.9579 20.0048 33.9403 19.987L30.1523 18.1958C30.0554 18.1514 29.9496 18.1514 29.8527 18.1958C29.5973 18.3199 29.5973 18.6923 29.8527 18.8165L33.0065 20.3151C33.0153 20.3151 33.0153 20.324 33.0065 20.3329L25.5979 23.8977H25.5891L23.3691 22.8069C23.3163 22.7803 23.2634 22.7715 23.2105 22.7715C23.0784 22.7715 22.9639 22.8424 22.911 22.9577C22.867 23.0464 22.867 23.1439 22.8934 23.2326C22.911 23.2947 22.9551 23.3745 23.0608 23.4188L25.2279 24.4829C25.2279 24.4829 25.2367 24.4829 25.2367 24.4918V34.0777C25.2367 34.0866 25.2279 34.0866 25.2279 34.0866L17.7047 30.4775C17.7047 30.4775 17.6959 30.4775 17.6959 30.4686V20.8827C17.6959 20.8738 17.7047 20.8738 17.7047 20.8738L20.5942 22.2483C20.647 22.2749 20.6999 22.2837 20.7528 22.2837C20.8849 22.2837 20.9994 22.2128 21.0523 22.0975C21.1316 21.9113 21.0699 21.7162 20.9025 21.6364L18.1628 20.3417C18.154 20.3417 18.154 20.3329 18.1628 20.324L20.5766 19.1623C20.832 19.0382 20.832 18.6746 20.5766 18.5416C20.4797 18.4973 20.374 18.4973 20.2771 18.5416L17.1586 20.0402H17.1409C17.0617 20.1023 17 20.2087 17 20.3063V30.6991C17 30.8233 17.0793 30.9563 17.1938 31.0272L25.4305 34.9645C25.4833 34.9822 25.545 35 25.5802 35C25.6243 35 25.686 34.9822 25.7476 34.9556L25.7917 34.9379H25.8005L33.9491 31.0184C34.0812 30.9563 34.1341 30.8499 34.1341 30.6991V25.8678C34.1429 25.6372 33.905 25.451 33.676 25.5397Z" fill="#FF00F7"/>
<path fill-rule="evenodd" clip-rule="evenodd" d="M25.3266 21.0408C27.4906 21.0408 29.2449 19.2865 29.2449 17.1224C29.2449 14.9584 27.4906 13.204 25.3266 13.204C23.1625 13.204 21.4082 14.9584 21.4082 17.1224C21.4082 19.2865 23.1625 21.0408 25.3266 21.0408ZM24.8832 15.8826H23.6119V14.9183H27.2854V15.8826H26.0141V19.3264H24.8832V15.8826Z" fill="#FF00F7"/>
<path d="M33.3771 22.4122C33.1244 22.4122 32.9199 22.5656 32.9199 22.7551C32.9199 22.9445 33.1244 23.0979 33.3771 23.0979H33.8342C34.0868 23.0979 34.2914 22.9445 34.2914 22.7551C34.2914 22.5656 34.0868 22.4122 33.8342 22.4122H33.3771Z" fill="#FF00F7"/>
<path d="M34.9767 21.4979C34.9767 21.2453 34.8233 21.0408 34.6339 21.0408C34.4444 21.0408 34.291 21.2453 34.291 21.4979V21.9551C34.291 22.2077 34.4444 22.4122 34.6339 22.4122C34.8233 22.4122 34.9767 22.2077 34.9767 21.9551V21.4979Z" fill="#FF00F7"/>
<path d="M35.4337 23.0979H35.8908C36.1435 23.0979 36.348 22.9445 36.348 22.7551C36.348 22.5656 36.1435 22.4122 35.8908 22.4122H35.4337C35.1811 22.4122 34.9766 22.5656 34.9766 22.7551C34.9766 22.9445 35.1811 23.0979 35.4337 23.0979Z" fill="#FF00F7"/>
<path d="M34.9767 24.0124V23.5552C34.9767 23.3026 34.8233 23.0981 34.6339 23.0981C34.4444 23.0981 34.291 23.3026 34.291 23.5552V24.0124C34.291 24.265 34.4444 24.4695 34.6339 24.4695C34.8233 24.4695 34.9767 24.2642 34.9767 24.0124Z" fill="#FF00F7"/>
<path d="M28.5595 11.8816C28.3971 11.8816 28.2656 11.9802 28.2656 12.102C28.2656 12.2238 28.3971 12.3224 28.5595 12.3224H28.8534C29.0158 12.3224 29.1473 12.2238 29.1473 12.102C29.1473 11.9802 29.0158 11.8816 28.8534 11.8816H28.5595Z" fill="#FF00F7"/>
<path d="M29.5873 11.2939C29.5873 11.1315 29.4887 11 29.3669 11C29.2451 11 29.1465 11.1315 29.1465 11.2939V11.5878C29.1465 11.7502 29.2451 11.8816 29.3669 11.8816C29.4887 11.8816 29.5873 11.7502 29.5873 11.5878V11.2939Z" fill="#FF00F7"/>
<path d="M29.8818 12.3224H30.1756C30.3381 12.3224 30.4695 12.2238 30.4695 12.102C30.4695 11.9802 30.3381 11.8816 30.1756 11.8816H29.8818C29.7194 11.8816 29.5879 11.9802 29.5879 12.102C29.5879 12.2238 29.7194 12.3224 29.8818 12.3224Z" fill="#FF00F7"/>
<path d="M29.5873 12.9102V12.6164C29.5873 12.454 29.4887 12.3225 29.3669 12.3225C29.2451 12.3225 29.1465 12.454 29.1465 12.6164V12.9102C29.1465 13.0726 29.2451 13.2041 29.3669 13.2041C29.4887 13.2041 29.5873 13.0722 29.5873 12.9102Z" fill="#FF00F7"/>
<path d="M18.5838 15.0163C18.3853 15.0163 18.2246 15.1368 18.2246 15.2857C18.2246 15.4345 18.3853 15.555 18.5838 15.555H18.943C19.1415 15.555 19.3022 15.4345 19.3022 15.2857C19.3022 15.1368 19.1415 15.0163 18.943 15.0163H18.5838Z" fill="#FF00F7"/>
<path d="M19.8415 14.298C19.8415 14.0995 19.721 13.9388 19.5721 13.9388C19.4232 13.9388 19.3027 14.0995 19.3027 14.298V14.6571C19.3027 14.8556 19.4232 15.0163 19.5721 15.0163C19.721 15.0163 19.8415 14.8556 19.8415 14.6571V14.298Z" fill="#FF00F7"/>
<path d="M20.201 15.555H20.5602C20.7587 15.555 20.9193 15.4345 20.9193 15.2857C20.9193 15.1368 20.7587 15.0163 20.5602 15.0163H20.201C20.0025 15.0163 19.8418 15.1368 19.8418 15.2857C19.8418 15.4345 20.0025 15.555 20.201 15.555Z" fill="#FF00F7"/>
<path d="M19.8415 16.2735V15.9144C19.8415 15.7159 19.721 15.5552 19.5721 15.5552C19.4232 15.5552 19.3027 15.7159 19.3027 15.9144V16.2735C19.3027 16.472 19.4232 16.6327 19.5721 16.6327C19.721 16.6327 19.8415 16.4714 19.8415 16.2735Z" fill="#FF00F7"/>
</svg>
