<svg width="50" height="50" viewBox="0 0 50 50" fill="none" xmlns="http://www.w3.org/2000/svg">
<circle cx="25.0401" cy="24.9581" r="23.9581" stroke="#03DAC5" stroke-width="2"/>
<path d="M36 18.7199L31.4 14.8599L30.11 16.3899L34.71 20.2499L36 18.7199ZM21.88 16.3899L20.6 14.8599L16 18.7099L17.29 20.2399L21.88 16.3899ZM26.5 20.9999H25V26.9999L29.75 29.8499L30.5 28.6199L26.5 26.2499V20.9999ZM26 16.9999C21.03 16.9999 17 21.0299 17 25.9999C17 30.9699 21.02 34.9999 26 34.9999C30.97 34.9999 35 30.9699 35 25.9999C35 21.0299 30.97 16.9999 26 16.9999ZM26 32.9999C22.13 32.9999 19 29.8699 19 25.9999C19 22.1299 22.13 18.9999 26 18.9999C29.87 18.9999 33 22.1299 33 25.9999C33 29.8699 29.87 32.9999 26 32.9999Z" fill="#03DAC5"/>
</svg>
