<svg width="22" height="24" viewBox="0 0 22 24" fill="none" xmlns="http://www.w3.org/2000/svg">
    <path d="M21.5059 19.0636C21.7821 18.9256 21.9202 18.6839 21.9202 18.3732V9.39806C21.9202 8.98382 21.575 8.63862 21.1607 8.63862C20.7465 8.63862 20.4013 8.98382 20.4013 9.39806V17.9245L11.7023 22.0669V10.9169L21.4714 6.25674C21.8511 6.08414 21.9892 5.63538 21.8166 5.25566C21.8166 5.1521 21.713 5.04854 21.6095 4.9795C21.5922 4.96224 21.575 4.95361 21.5577 4.94498C21.5404 4.93635 21.5232 4.92772 21.5059 4.91046L11.3225 0.0776699C11.1154 -0.02589 10.8738 -0.02589 10.6667 0.0776699L0.448759 4.91046H0.414239C0.379719 4.91046 0.379719 4.91046 0.345199 4.94498C0.138079 5.08306 0 5.3247 0 5.56634V18.3732C0 18.6494 0.172599 18.9256 0.414239 19.0636L10.6667 23.931C10.7702 23.9655 10.8738 24 10.9773 24C11.0809 24 11.1845 23.9655 11.288 23.931H11.3225L21.5059 19.0636ZM1.51888 6.77454L4.66019 8.2589C5.03991 8.4315 5.48867 8.29342 5.66127 7.9137C5.83387 7.53398 5.69579 7.08522 5.31607 6.91262L2.51996 5.60086L10.9773 1.56203L19.4347 5.60086L10.9773 9.6397L8.35383 8.36246C7.97411 8.18986 7.52535 8.32794 7.35275 8.70766C7.18015 9.08738 7.31823 9.53614 7.69795 9.70874L10.2179 10.9169V22.0324L1.51888 17.89V6.77454Z"
          fill="white"/>
    <path d="M21.5059 19.0636C21.7821 18.9256 21.9202 18.6839 21.9202 18.3732V9.39806C21.9202 8.98382 21.575 8.63862 21.1607 8.63862C20.7465 8.63862 20.4013 8.98382 20.4013 9.39806V17.9245L11.7023 22.0669V10.9169L21.4714 6.25674C21.8511 6.08414 21.9892 5.63538 21.8166 5.25566C21.8166 5.1521 21.713 5.04854 21.6095 4.9795C21.5922 4.96224 21.575 4.95361 21.5577 4.94498C21.5404 4.93635 21.5232 4.92772 21.5059 4.91046L11.3225 0.0776699C11.1154 -0.02589 10.8738 -0.02589 10.6667 0.0776699L0.448759 4.91046H0.414239C0.379719 4.91046 0.379719 4.91046 0.345199 4.94498C0.138079 5.08306 0 5.3247 0 5.56634V18.3732C0 18.6494 0.172599 18.9256 0.414239 19.0636L10.6667 23.931C10.7702 23.9655 10.8738 24 10.9773 24C11.0809 24 11.1845 23.9655 11.288 23.931H11.3225L21.5059 19.0636ZM1.51888 6.77454L4.66019 8.2589C5.03991 8.4315 5.48867 8.29342 5.66127 7.9137C5.83387 7.53398 5.69579 7.08522 5.31607 6.91262L2.51996 5.60086L10.9773 1.56203L19.4347 5.60086L10.9773 9.6397L8.35383 8.36246C7.97411 8.18986 7.52535 8.32794 7.35275 8.70766C7.18015 9.08738 7.31823 9.53614 7.69795 9.70874L10.2179 10.9169V22.0324L1.51888 17.89V6.77454Z"
          stroke="white"/>
</svg>
