<svg width="24" height="24" viewBox="0 0 24 24" fill="none" xmlns="http://www.w3.org/2000/svg">
    <path d="M7.3407 10.0845L12.0019 5.42516L16.6651 10.0883L19.3758 7.37572L12.0019 0L4.62811 7.37383L7.3407 10.0845Z"
          fill="#F3BA2F"/>
    <path d="M0 12.0004L2.71159 9.28884L5.42318 12.0004L2.71159 14.712L0 12.0004Z" fill="#F3BA2F"/>
    <path d="M7.3407 13.9155L12.0019 18.5767L16.6651 13.9136L19.3777 16.6224L19.3758 16.6243L12.0019 24L4.62812 16.6281L4.62433 16.6243L7.3407 13.9155Z"
          fill="#F3BA2F"/>
    <path d="M18.576 12.0011L21.2876 9.28951L23.9992 12.0011L21.2876 14.7127L18.576 12.0011Z" fill="#F3BA2F"/>
    <path d="M14.7524 11.999L12.0019 9.24664L9.96794 11.2806L9.73289 11.5138L9.25141 11.9952L9.24762 11.999L9.25141 12.0047L12.0019 14.7533L14.7524 12.0009L14.7543 11.999H14.7524Z"
          fill="#F3BA2F"/>
</svg>
