<svg width="28" height="24" viewBox="0 0 28 24" fill="none" xmlns="http://www.w3.org/2000/svg">
    <g clip-path="url(#clip0_48_2066)">
        <path d="M20.7761 7.30751C20.2746 7.02094 19.6299 7.02094 19.0567 7.30751L15.0448 9.67169L12.3224 11.1762L8.38209 13.5403C7.8806 13.8269 7.23582 13.8269 6.66269 13.5403L3.58209 11.6777C3.0806 11.3911 2.72239 10.818 2.72239 10.1732V6.59109C2.72239 6.01796 3.00896 5.44482 3.58209 5.08661L6.66269 3.29557C7.16418 3.009 7.80896 3.009 8.38209 3.29557L11.4627 5.15826C11.9642 5.44482 12.3224 6.01796 12.3224 6.66273V9.02691L15.0448 7.45079V5.01497C15.0448 4.44184 14.7582 3.8687 14.1851 3.51049L8.45373 0.143331C7.95224 -0.143236 7.30746 -0.143236 6.73433 0.143331L0.859702 3.58214C0.286567 3.8687 0 4.44184 0 5.01497V11.7493C0 12.3224 0.286567 12.8956 0.859702 13.2538L6.66269 16.6209C7.16418 16.9075 7.80896 16.9075 8.38209 16.6209L12.3224 14.3284L15.0448 12.7523L18.9851 10.4597C19.4866 10.1732 20.1313 10.1732 20.7045 10.4597L23.7851 12.2508C24.2866 12.5374 24.6448 13.1105 24.6448 13.7553V17.3374C24.6448 17.9105 24.3582 18.4836 23.7851 18.8418L20.7761 20.6329C20.2746 20.9194 19.6299 20.9194 19.0567 20.6329L15.9761 18.8418C15.4746 18.5553 15.1164 17.9821 15.1164 17.3374V15.0448L12.394 16.6209V18.9851C12.394 19.5583 12.6806 20.1314 13.2537 20.4896L19.0567 23.8568C19.5582 24.1433 20.203 24.1433 20.7761 23.8568L26.5791 20.4896C27.0806 20.203 27.4388 19.6299 27.4388 18.9851V12.1792C27.4388 11.606 27.1522 11.0329 26.5791 10.6747L20.7761 7.30751Z"
              fill="#8247E5"/>
    </g>
    <defs>
        <clipPath id="clip0_48_2066">
            <rect width="27.5104" height="24" fill="white"/>
        </clipPath>
    </defs>
</svg>
