<svg xmlns="http://www.w3.org/2000/svg" xmlns:xlink="http://www.w3.org/1999/xlink" viewBox="0 0 141.111 50" width="112" height="40"><defs><style>.a{fill:#fff;}.b{fill:url(#a);}</style><linearGradient id="a" x1="0.273" y1="7.19" x2="90.119" y2="7.19" gradientUnits="userSpaceOnUse"><stop offset="0" stop-color="#ff00f6"/><stop offset="1" stop-color="#28b5ff"/></linearGradient></defs><path class="a" d="M123.443,25.419a5.122,5.122,0,0,0-3.375,1.106,5.245,5.245,0,0,0-1.745,3.142h10.239a5.342,5.342,0,0,0-1.745-3.113,5.033,5.033,0,0,0-3.374-1.135m17.395,7.506q0,.29-.174,3.083H118.556a5.352,5.352,0,0,0,2.327,2.764,7.91,7.91,0,0,0,4.072.96,10.28,10.28,0,0,0,3.52-.524,12.336,12.336,0,0,0,3.113-1.8l6.865,6.924q-4.655,5.119-13.9,5.119a22.865,22.865,0,0,1-10.123-2.123,16.078,16.078,0,0,1-6.749-5.905,15.594,15.594,0,0,1-2.385-8.494,15.691,15.691,0,0,1,2.356-8.524,16.106,16.106,0,0,1,6.458-5.847,21.272,21.272,0,0,1,18.035-.174,15.133,15.133,0,0,1,6.342,5.643A16.3,16.3,0,0,1,140.838,32.925Zm-52.9,6.283a4.732,4.732,0,0,0,3.723-1.658,6.781,6.781,0,0,0,1.454-4.625,6.667,6.667,0,0,0-1.454-4.6,5.07,5.07,0,0,0-7.447,0,6.672,6.672,0,0,0-1.454,4.6,6.786,6.786,0,0,0,1.454,4.625A4.732,4.732,0,0,0,87.933,39.208ZM106.026.467v48.4H93.518V46.248q-2.851,3.2-8.727,3.2a15.294,15.294,0,0,1-7.709-2.007A14.476,14.476,0,0,1,71.5,41.651a17.91,17.91,0,0,1-2.065-8.726,17.748,17.748,0,0,1,2.065-8.7,14.527,14.527,0,0,1,5.585-5.76,15.294,15.294,0,0,1,7.709-2.007q5.293,0,8.087,2.734V.467ZM53.062,39.208a4.732,4.732,0,0,0,3.724-1.658,6.781,6.781,0,0,0,1.454-4.625,6.667,6.667,0,0,0-1.454-4.6,5.07,5.07,0,0,0-7.447,0,6.667,6.667,0,0,0-1.455,4.6,6.781,6.781,0,0,0,1.455,4.625A4.73,4.73,0,0,0,53.062,39.208Zm0,10.239a20.854,20.854,0,0,1-9.512-2.123,16.347,16.347,0,0,1-6.6-5.876,15.551,15.551,0,0,1-2.386-8.523A15.552,15.552,0,0,1,36.947,24.4a16.139,16.139,0,0,1,6.6-5.847,21.1,21.1,0,0,1,9.512-2.094,21.237,21.237,0,0,1,9.571,2.094A15.939,15.939,0,0,1,69.207,24.4a15.691,15.691,0,0,1,2.356,8.524,15.69,15.69,0,0,1-2.356,8.523,16.143,16.143,0,0,1-6.574,5.876A20.986,20.986,0,0,1,53.062,49.447ZM22.381,16.46a12.838,12.838,0,0,1,9.454,3.549q3.577,3.549,3.578,10.7V48.866H22.265V32.983q0-5.469-3.9-5.469a4.553,4.553,0,0,0-3.577,1.542q-1.368,1.54-1.367,4.858V48.866H.273V17.042H12.782v3.141a12.115,12.115,0,0,1,4.305-2.792A14.737,14.737,0,0,1,22.381,16.46Z"/><path class="b" d="M82.334,10.381a3.242,3.242,0,0,0,2.336-.836,3.1,3.1,0,0,0,.874-2.355,3.1,3.1,0,0,0-.874-2.354A3.238,3.238,0,0,0,82.334,4h-1.9v6.382ZM75.9.463h6.631A9.147,9.147,0,0,1,86.5,1.28a6.221,6.221,0,0,1,2.671,2.335,6.6,6.6,0,0,1,.952,3.575,6.6,6.6,0,0,1-.952,3.575A6.214,6.214,0,0,1,86.5,13.1a9.147,9.147,0,0,1-3.969.817H75.9ZM75.061,10.5v3.421H63.875V.463H74.811V3.884H68.334V5.46h5.689V8.728H68.334V10.5ZM55.141,3.98H51.2V.463H63.617V3.98h-3.94v9.937H55.141ZM45.523,14.225a14.107,14.107,0,0,1-3.258-.375,8.748,8.748,0,0,1-2.605-1.009l1.461-3.306a9.328,9.328,0,0,0,2.153.894,8.421,8.421,0,0,0,2.287.336,3.569,3.569,0,0,0,1.346-.182.587.587,0,0,0,.4-.548c0-.282-.176-.493-.528-.635a11.46,11.46,0,0,0-1.74-.461,19.9,19.9,0,0,1-2.595-.7,4.411,4.411,0,0,1-1.806-1.231,3.332,3.332,0,0,1-.769-2.315,3.992,3.992,0,0,1,.711-2.307A4.7,4.7,0,0,1,42.707.751,8.822,8.822,0,0,1,46.138.156a12.487,12.487,0,0,1,2.719.3,8.542,8.542,0,0,1,2.355.875L49.847,4.615a8.334,8.334,0,0,0-3.748-1q-1.749,0-1.749.846,0,.4.519.6A10.942,10.942,0,0,0,46.58,5.5a17.515,17.515,0,0,1,2.594.663,4.522,4.522,0,0,1,1.836,1.22,3.275,3.275,0,0,1,.778,2.307,3.947,3.947,0,0,1-.711,2.3,4.784,4.784,0,0,1-2.124,1.633A8.684,8.684,0,0,1,45.523,14.225Zm-12.732,0a6.658,6.658,0,0,1-4.825-1.672,6.22,6.22,0,0,1-1.729-4.69V.463h4.536V7.728A3.5,3.5,0,0,0,31.3,9.881a2.071,2.071,0,0,0,3.056,0,3.5,3.5,0,0,0,.529-2.153V.463h4.459v7.4a6.22,6.22,0,0,1-1.73,4.69A6.655,6.655,0,0,1,32.791,14.225ZM20.981,5.537a1.483,1.483,0,0,0-.461-1.163,2.02,2.02,0,0,0-1.384-.413H17.483V7.113h1.653A2.015,2.015,0,0,0,20.52,6.7,1.483,1.483,0,0,0,20.981,5.537Zm-2.268,5h-1.23v3.382H12.947V.463h6.477a7.944,7.944,0,0,1,3.249.615,4.789,4.789,0,0,1,2.133,1.768,4.826,4.826,0,0,1,.75,2.691A4.755,4.755,0,0,1,24.9,8.055a4.6,4.6,0,0,1-1.884,1.711l2.826,4.151H21ZM4.213,3.98H.273V.463H12.689V3.98H8.749v9.937H4.213Z"/></svg>
