<svg width="21" height="20" viewBox="0 0 21 20" fill="none" xmlns="http://www.w3.org/2000/svg">
<path d="M20.3329 8.00001H19.6663V4.00001C19.6663 3.82319 19.596 3.65363 19.471 3.5286C19.346 3.40358 19.1764 3.33334 18.9996 3.33334H2.9996C2.84174 3.33591 2.68809 3.28238 2.56601 3.18227C2.44393 3.08216 2.36133 2.94198 2.33294 2.78667V2.54667C2.36133 2.39137 2.44393 2.25118 2.56601 2.15107C2.68809 2.05096 2.84174 1.99743 2.9996 2.00001H18.7196C18.8964 2.00001 19.066 1.92977 19.191 1.80474C19.316 1.67972 19.3863 1.51015 19.3863 1.33334C19.3863 1.15653 19.316 0.986958 19.191 0.861934C19.066 0.73691 18.8964 0.666672 18.7196 0.666672H2.9996C2.46917 0.666672 1.96046 0.877385 1.58539 1.25246C1.21032 1.62753 0.999603 2.13624 0.999603 2.66667C0.994924 2.7466 0.994924 2.82674 0.999603 2.90667V16.62C1.00222 16.979 1.07551 17.3339 1.2153 17.6645C1.35509 17.9951 1.55863 18.295 1.8143 18.5469C2.06997 18.7989 2.37277 18.998 2.7054 19.1329C3.03803 19.2679 3.39399 19.336 3.75294 19.3333H18.9996C19.1764 19.3333 19.346 19.2631 19.471 19.1381C19.596 19.0131 19.6663 18.8435 19.6663 18.6667V14.6667H20.3329C20.5098 14.6667 20.6793 14.5964 20.8043 14.4714C20.9294 14.3464 20.9996 14.1768 20.9996 14V8.66667C20.9996 8.48986 20.9294 8.32029 20.8043 8.19527C20.6793 8.07024 20.5098 8.00001 20.3329 8.00001ZM18.3329 18H3.75294C3.38214 18.0036 3.02492 17.8606 2.759 17.6022C2.49307 17.3437 2.33995 16.9908 2.33294 16.62V4.58667C2.54934 4.64938 2.77451 4.6764 2.9996 4.66667H18.3329V8.00001H13.6663C12.7822 8.00001 11.9344 8.35119 11.3092 8.97632C10.6841 9.60144 10.3329 10.4493 10.3329 11.3333C10.3329 12.2174 10.6841 13.0652 11.3092 13.6904C11.9344 14.3155 12.7822 14.6667 13.6663 14.6667H18.3329V18ZM19.6663 13.3333H13.6663C13.1358 13.3333 12.6271 13.1226 12.2521 12.7476C11.877 12.3725 11.6663 11.8638 11.6663 11.3333C11.6663 10.8029 11.877 10.2942 12.2521 9.91912C12.6271 9.54405 13.1358 9.33334 13.6663 9.33334H19.6663V13.3333Z" fill="#FC00F4"/>
</svg>
