<svg xmlns="http://www.w3.org/2000/svg" viewBox="0 0 100 100"><path d="M68.33 38.32A33.71 33.71 0 0 0 88 44.6V30.51a20.46 20.46 0 0 1-4.13-.43v11.09a33.73 33.73 0 0 1-19.67-6.28v28.75a26.08 26.08 0 0 1-40.57 21.65 26.07 26.07 0 0 0 44.7-18.21V38.32zm5.09-14.22a19.61 19.61 0 0 1-5.09-11.5v-1.81h-3.91a19.72 19.72 0 0 0 9 13.31zM32.73 74.25a11.92 11.92 0 0 1 13.11-18.57V41.27a26 26 0 0 0-4.13-.27v11.25a11.92 11.92 0 0 0-9 22z" fill-rule="evenodd" fill="#ee1d52"/><path d="M64.2 34.89a33.73 33.73 0 0 0 19.65 6.28V30.08a19.72 19.72 0 0 1-10.43-6 19.72 19.72 0 0 1-9-13.31H54.14v56.3a11.92 11.92 0 0 1-21.41 7.18 11.92 11.92 0 0 1 5.37-22.56 11.65 11.65 0 0 1 3.61.56V41a26 26 0 0 0-18.08 44.29A26.08 26.08 0 0 0 64.2 63.64z" fill="#fff" fill-rule="evenodd"/><path d="M83.85 30.08v-3a19.71 19.71 0 0 1-10.43-3 19.71 19.71 0 0 0 10.43 6zM64.42 10.79c-.1-.54-.17-1.08-.22-1.62V7.36H50v56.28a11.93 11.93 0 0 1-17.27 10.61 11.92 11.92 0 0 0 21.41-7.18V10.79zM41.71 41v-3.16a26.65 26.65 0 0 0-3.57-.24 26 26 0 0 0-14.51 47.69A26 26 0 0 1 41.71 41z" fill="#69c9d0" fill-rule="evenodd"/></svg>