<svg xmlns="http://www.w3.org/2000/svg" viewBox="0 0 100 100"><path d="M81 26.38a26.78 26.78 0 0 1-8.58 3.27 12.76 12.76 0 0 0-9.79-4.23 13.43 13.43 0 0 0-13.46 13.44 12.07 12.07 0 0 0 .32 3.08A38.12 38.12 0 0 1 34 37.78a38.3 38.3 0 0 1-12.29-9.92 13.25 13.25 0 0 0-1.85 6.78 12.68 12.68 0 0 0 5.82 11.2 15.88 15.88 0 0 1-6.4-1.66v.12a12.82 12.82 0 0 0 3.2 8.55 13.49 13.49 0 0 0 7.87 4.64 12.51 12.51 0 0 1-3.26.51 18.26 18.26 0 0 1-2.5-.26 13.71 13.71 0 0 0 4.77 6.66 12.74 12.74 0 0 0 7.78 2.69 26.57 26.57 0 0 1-16.71 5.76 27.52 27.52 0 0 1-3.2-.19 37.73 37.73 0 0 0 20.61 6 39.26 39.26 0 0 0 13.44-2.26A34.43 34.43 0 0 0 62 70.32a40.11 40.11 0 0 0 7.71-8.77 38.77 38.77 0 0 0 6.4-21.15c0-.77 0-1.34-.06-1.73a26 26 0 0 0 6.72-7 28.54 28.54 0 0 1-7.77 2.2 13 13 0 0 0 6-7.49z" fill="#fff"/></svg>