<svg xmlns="http://www.w3.org/2000/svg" viewBox="0 0 100 100"><path d="M82.93 27.53c-10.65-8-20.79-7.77-20.79-7.77L61.1 21c12.58 3.84 18.43 9.39 18.43 9.39a62.87 62.87 0 0 0-55.27-2.19c-2.73 1.25-4.36 2.14-4.36 2.14s6.1-5.84 19.45-9.69l-.73-.89s-10.14-.22-20.79 7.77c0 0-10.66 19.31-10.66 43.13 0 0 6.22 10.73 22.57 11.24 0 0 2.73-3.32 4.95-6.14C25.3 73 21.75 67 21.75 67c1.09.76 2.88 1.74 3 1.84a53.88 53.88 0 0 0 46.16 2.59 42 42 0 0 0 8.51-4.36s-3.7 6.07-13.39 8.8c2.22 2.81 4.88 6 4.88 6 16.35-.51 22.64-11.24 22.64-11.24.03-23.79-10.62-43.1-10.62-43.1zM36.54 63.78c-4.14 0-7.54-3.7-7.54-8.21s3.33-8.21 7.54-8.21a7.84 7.84 0 0 1 7.55 8.21c0 4.51-3.33 8.21-7.55 8.21zm27 0c-4.15 0-7.55-3.7-7.55-8.21s3.33-8.21 7.55-8.21 7.54 3.7 7.54 8.21-3.32 8.21-7.53 8.21z" fill="#fff"/></svg>