<svg xmlns="http://www.w3.org/2000/svg" viewBox="0 0 100 100"><defs><style>.a{fill:#fff}</style></defs><path class="a" d="M70.88 24.18a4.76 4.76 0 0 0 0 9.52 4.66 4.66 0 0 0 3.29-8.06 4.58 4.58 0 0 0-3.29-1.46zM49.82 29.85a19.49 19.49 0 0 0-14.29 5.87A19.77 19.77 0 0 0 29.67 50a19.48 19.48 0 0 0 5.86 14.28 19.78 19.78 0 0 0 14.29 5.87 19.46 19.46 0 0 0 14.28-5.87A19.73 19.73 0 0 0 70 50a19.44 19.44 0 0 0-5.9-14.28 18.79 18.79 0 0 0-14.28-5.87zm9.34 29.31a13.28 13.28 0 0 1-18.68 0A12 12 0 0 1 36.63 50a13.14 13.14 0 0 1 13.19-13.19 12.75 12.75 0 0 1 9.34 3.85A13 13 0 0 1 63 50a12.63 12.63 0 0 1-3.84 9.16z"/><path class="a" d="M82.6 17.4c-3.85-4-9.34-6-16.48-6.41-2.93-.18-8.24-.18-16.12-.18-7.69 0-13.19 0-16.12.18-7.14.37-12.63 2.57-16.48 6.41-4 3.85-6 9.34-6.41 16.48-.18 2.93-.18 8.43-.18 16.12s0 13.19.18 16.12c.37 7.14 2.57 12.63 6.41 16.48 3.85 4 9.34 6 16.48 6.41 2.93.18 8.25.18 16.12.18 7.69 0 13.19 0 16.12-.18 7.14-.37 12.45-2.57 16.48-6.41s6-9.34 6.41-16.48c.18-2.93.18-8.25.18-16.12S89 36.81 89 33.88c-.36-7.14-2.56-12.45-6.4-16.48zm-.37 28.75v13c0 1.28-.18 2.93-.18 4.94-.18 2.2-.37 3.85-.55 5.31a14.92 14.92 0 0 1-.92 3.67 12.92 12.92 0 0 1-2.93 4.57 17.38 17.38 0 0 1-4.57 2.93 14.92 14.92 0 0 1-3.67.92 22.28 22.28 0 0 1-5.31.55c-2 .18-3.66.18-4.94.18H40.84c-1.28 0-2.74 0-4.94-.18s-3.85-.37-5.31-.55a14.92 14.92 0 0 1-3.67-.92 12.92 12.92 0 0 1-4.57-2.93 17.38 17.38 0 0 1-2.93-4.57 35.31 35.31 0 0 1-.92-3.67 22.28 22.28 0 0 1-.5-5.3c-.18-2-.18-3.66-.18-4.94V40.84c0-1.28.18-2.93.18-4.94.18-2.2.37-3.85.55-5.31a14.92 14.92 0 0 1 .92-3.67 12.92 12.92 0 0 1 2.93-4.57 17.38 17.38 0 0 1 4.57-2.93 14.92 14.92 0 0 1 3.67-.92 22.28 22.28 0 0 1 5.26-.5c2-.18 3.66-.18 4.94-.18h18.32c1.28 0 2.93.18 4.94.18 2.2.18 3.85.37 5.31.55a14.92 14.92 0 0 1 3.67.92 12.92 12.92 0 0 1 4.57 2.93 17.38 17.38 0 0 1 2.93 4.57 14.92 14.92 0 0 1 .92 3.67 22.28 22.28 0 0 1 .55 5.31c.18 2 .18 3.66.18 4.94z"/></svg>