<svg xmlns="http://www.w3.org/2000/svg" viewBox="0 0 100 100"><defs><style>.a{fill:#fff}</style></defs><path class="a" d="M49 39.06a5.94 5.94 0 0 0 5-2.44q1.35-1.73 1.35-5.56v-8.32A9.45 9.45 0 0 0 54 17.17a6 6 0 0 0-5-2.43 5.74 5.74 0 0 0-5 2.43 9.45 9.45 0 0 0-1.35 5.57v8.32A9.42 9.42 0 0 0 44 36.62a5.72 5.72 0 0 0 5 2.44zM47 21.9c0-2.21.68-3.32 2-3.32s2.05 1.11 2.05 3.32v10c0 2.17-.68 3.26-2.05 3.26s-2-1.09-2-3.26zM29.2 15.76a88.53 88.53 0 0 1 2.94 10.11v12.87h4.74V25.87l5.76-18.94h-4.8l-3.26 12.48-3.4-12.48h-5q.45 1.47 1.47 4.41zM62 39.06q2.31 0 4.93-2.88v2.56h4.29V15.06H67v18.11c-.94 1.32-1.83 2-2.69 2q-1 0-1-1a9.68 9.68 0 0 1-.07-1.67V15.06H58.9v18.75a11.84 11.84 0 0 0 .38 3.52A2.7 2.7 0 0 0 62 39.06zM57.81 62.8a3 3 0 0 0-2.11 1v14.36a3 3 0 0 0 2.11 1c1.24 0 1.85-1 1.85-3.13V66c0-2.13-.61-3.2-1.85-3.2zM73.55 62.8c-1.41 0-2.11 1.09-2.11 3.26v2.18h4.22v-2.18c0-2.17-.66-3.26-2.11-3.26z"/><path class="a" d="M84 50.9a8.91 8.91 0 0 0-7.63-6.9A263.2 263.2 0 0 0 50 43a262.28 262.28 0 0 0-26.3 1 8.59 8.59 0 0 0-4.9 2.21 8.85 8.85 0 0 0-2.72 4.71q-1.27 5.57-1.28 16.64 0 11.26 1.28 16.64a9 9 0 0 0 2.72 4.67 8.45 8.45 0 0 0 4.83 2.24q8.78 1 26.37 1t26.37-1a8.45 8.45 0 0 0 4.83-2.24 9 9 0 0 0 2.72-4.67q1.28-5.4 1.28-16.66T84 50.9zm-49.1 4.8h-5.12v27.07H25V55.7h-5v-4.48h14.9zm12.86 27.07h-4.29v-2.56q-2.47 2.88-4.86 2.88a2.52 2.52 0 0 1-2.69-1.79 11.21 11.21 0 0 1-.38-3.46V59.28h4.22v17.28a10.23 10.23 0 0 0 .06 1.66q.07 1 1 1c.86 0 1.75-.66 2.69-2V59.28h4.29zm16.13-7a16.61 16.61 0 0 1-.45 4.67 3.28 3.28 0 0 1-3.39 2.69q-2.25 0-4.35-2.63v2.31h-4.29V51.22h4.29v10.3q2-2.57 4.35-2.56a3.28 3.28 0 0 1 3.39 2.69 16.87 16.87 0 0 1 .45 4.73zm16.06-4h-8.51v4.16c0 2.18.73 3.26 2.18 3.26a1.85 1.85 0 0 0 1.92-1.66v-.45-2.44H80v.58a20.53 20.53 0 0 1-.18 2.78 5.84 5.84 0 0 1-6.08 5.12 6.16 6.16 0 0 1-5.18-2.43c-.9-1.16-1.34-3-1.34-5.51V66.9c0-2.52.42-4.36 1.28-5.51A6.07 6.07 0 0 1 73.62 59a5.75 5.75 0 0 1 5 2.43A9.41 9.41 0 0 1 80 66.9z"/></svg>