<svg xmlns="http://www.w3.org/2000/svg" viewBox="0 0 100 100"><path d="M77.58 43.73a6.57 6.57 0 0 0-9.34.06 30.78 30.78 0 0 0-17.09-5.25L54.61 23l10.94 2.5a4.85 4.85 0 0 0 1.51 3.45 4.91 4.91 0 0 0 8.35-3.52 4.92 4.92 0 0 0-4.93-4.92 4.57 4.57 0 0 0-4.42 2.75L54 20.56a1 1 0 0 0-1.35.83l-3.87 17.15a31.23 31.23 0 0 0-17 5.32 6.2 6.2 0 0 0-4.73-2 6.35 6.35 0 0 0-4.67 1.92 6.28 6.28 0 0 0-1.92 4.61 6.42 6.42 0 0 0 1 3.52 6.77 6.77 0 0 0 2.69 2.43 15.12 15.12 0 0 0-.32 3.07q0 7.81 7.68 13.34T50 76.29q10.89 0 18.56-5.54t7.74-13.39a12.73 12.73 0 0 0-.38-3.14 6.56 6.56 0 0 0 2.59-2.4 6.36 6.36 0 0 0 1-3.48 6.28 6.28 0 0 0-1.93-4.61zm-43.32 11.2a4.88 4.88 0 1 1 4.92 4.93 5 5 0 0 1-4.92-4.93zm26.68 11.65Q57.55 70 50 70t-10.94-3.42a1.18 1.18 0 1 1 1.66-1.67c1.79 1.79 4.89 2.69 9.28 2.69s7.49-.9 9.28-2.69a1.18 1.18 0 0 1 1.66 1.67zm3.33-8.2a4.93 4.93 0 0 1-8.38-3.45 4.93 4.93 0 1 1 8.38 3.45z" fill="#fff"/></svg>