<svg width="75" height="75" viewBox="0 0 75 75" fill="none" xmlns="http://www.w3.org/2000/svg">
<path d="M42.4007 7.71107L45.421 6.0331C45.9804 5.69751 46.2041 4.97039 45.8685 4.35514C45.5329 3.79581 44.8058 3.57208 44.1905 3.90768L37.9261 7.43141C37.5905 7.5992 37.3668 7.9348 37.3109 8.32632C37.2549 8.66192 37.3668 9.05344 37.6465 9.3331L42.6804 14.7585C42.9041 15.0382 43.2397 15.1501 43.5753 15.1501C43.8549 15.1501 44.1905 15.0382 44.4142 14.8145C44.9176 14.367 44.9176 13.584 44.4702 13.0806L41.6736 10.0602C55.1532 12.0178 65.3888 23.7077 65.3888 37.5229C65.3888 50.5551 56.16 61.9653 43.4634 64.706C42.7922 64.8738 42.4007 65.489 42.5126 66.1602C42.6244 66.7196 43.1278 67.1111 43.6871 67.1111C43.799 67.1111 43.8549 67.1111 43.9668 67.0551C57.7821 64.0907 67.7939 51.6738 67.7939 37.5229C67.8498 22.645 56.8871 10.0043 42.4007 7.71107Z" fill="#28B5FF"/>
<path d="M32.6695 60.2313C32.222 59.728 31.439 59.728 30.9356 60.1754C30.4322 60.6229 30.4322 61.4059 30.8797 61.9093L33.6763 64.9296C20.1966 62.9161 9.90509 51.2822 9.90509 37.411C9.90509 24.3229 19.1898 12.8568 31.9983 10.172C32.7254 10.0601 33.117 9.38896 33.0051 8.77371C32.8373 8.10252 32.222 7.65506 31.5509 7.82286C17.6237 10.6754 7.5 23.1483 7.5 37.411C7.5 52.3449 18.4627 64.9296 32.8932 67.2788L29.8729 68.9568C29.3136 69.2924 29.0898 70.0195 29.4254 70.6347C29.6492 71.0263 30.0407 71.25 30.4881 71.25C30.7119 71.25 30.8797 71.1941 31.1034 71.0822L37.4237 67.5585C37.7593 67.3907 37.9831 67.0551 38.039 66.6635C38.0949 66.272 37.9831 65.9364 37.7034 65.6568L32.6695 60.2313Z" fill="#28B5FF"/>
<path fill-rule="evenodd" clip-rule="evenodd" d="M37.5 55.75C47.4411 55.75 55.5 47.6911 55.5 37.75C55.5 27.8089 47.4411 19.75 37.5 19.75C27.5589 19.75 19.5 27.8089 19.5 37.75C19.5 47.6911 27.5589 55.75 37.5 55.75ZM40.2627 32.0357H47.5401V27.5227H27.2734V32.0357H34.4176V51.7694H40.2627V32.0357Z" fill="#28B5FF"/>
</svg>
