<svg width="60" height="74" viewBox="0 0 60 74" fill="none" xmlns="http://www.w3.org/2000/svg">
<path d="M51.4176 44.8308C50.983 44.9948 50.7114 45.4323 50.7114 45.8971V60.1102C50.7114 60.1102 50.7114 60.1376 50.6842 60.1376L27.4879 71.2657C27.4607 71.2657 27.4607 71.2657 27.4607 71.2384V41.5724C27.4607 41.5724 27.4607 41.5451 27.4879 41.5451L52.2324 29.6513C52.7485 29.4053 52.9387 28.8037 52.6942 28.2296L52.6127 28.0655V28.0108C52.5855 27.9835 52.5312 27.9288 52.4497 27.8741L52.3954 27.8194C52.3411 27.7921 52.2868 27.7648 52.2324 27.7101L40.5528 22.187C40.254 22.0503 39.9281 22.0503 39.6293 22.187C38.8416 22.5698 38.8416 23.7182 39.6293 24.1009L49.3533 28.7217C49.3804 28.7217 49.3804 28.7491 49.3533 28.7764L26.5101 39.7679H26.4829L19.6381 36.4048C19.4751 36.3228 19.3122 36.2954 19.1492 36.2954C18.7417 36.2954 18.3886 36.5142 18.2257 36.8696C18.0899 37.143 18.0899 37.4438 18.1713 37.7172C18.2257 37.9086 18.3615 38.1547 18.6874 38.2914L25.3693 41.5724C25.3693 41.5724 25.3964 41.5724 25.3964 41.5998V71.1564C25.3964 71.1837 25.3693 71.1837 25.3693 71.1837L2.17296 60.0556C2.17296 60.0556 2.14579 60.0556 2.14579 60.0282V30.4716C2.14579 30.4443 2.17296 30.4443 2.17296 30.4443L11.0821 34.6823C11.245 34.7643 11.408 34.7916 11.571 34.7916C11.9784 34.7916 12.3315 34.5729 12.4945 34.2174C12.739 33.6433 12.5488 33.0417 12.0327 32.7957L3.58538 28.8038C3.55822 28.8038 3.55822 28.7764 3.58538 28.7491L11.0278 25.1673C11.8155 24.7845 11.8155 23.6635 11.0278 23.2533C10.729 23.1166 10.403 23.1166 10.1042 23.2533L0.488915 27.8741H0.434591C0.190134 28.0655 0 28.3936 0 28.6944V60.7391C0 61.1219 0.244458 61.532 0.597563 61.7508L25.994 73.8906C26.157 73.9453 26.3471 73.9999 26.4557 73.9999C26.5916 73.9999 26.7817 73.9453 26.9718 73.8632L27.1076 73.8085H27.1348L52.2596 61.7234C52.667 61.532 52.83 61.2039 52.83 60.7391V45.8424C52.8572 45.1315 52.1238 44.5574 51.4176 44.8308Z" fill="#F00CF6"/>
<path fill-rule="evenodd" clip-rule="evenodd" d="M25.6735 30.9592C32.346 30.9592 37.7551 25.55 37.7551 18.8775C37.7551 12.205 32.346 6.7959 25.6735 6.7959C19.001 6.7959 13.5919 12.205 13.5919 18.8775C13.5919 25.55 19.001 30.9592 25.6735 30.9592ZM24.3075 15.0548H20.3878V12.0815H31.7143V15.0548H27.7945V25.6734H24.3075V15.0548Z" fill="#F00CF6"/>
<path d="M50.4912 35.188C49.7122 35.188 49.0817 35.6609 49.0817 36.2451C49.0817 36.8293 49.7122 37.3023 50.4912 37.3023H51.9007C52.6797 37.3023 53.3102 36.8293 53.3102 36.2451C53.3102 35.6609 52.6797 35.188 51.9007 35.188H50.4912Z" fill="#F00CF6"/>
<path d="M55.4245 32.369C55.4245 31.59 54.9516 30.9595 54.3674 30.9595C53.7831 30.9595 53.3102 31.59 53.3102 32.369V33.7785C53.3102 34.5575 53.7831 35.188 54.3674 35.188C54.9516 35.188 55.4245 34.5575 55.4245 33.7785V32.369Z" fill="#F00CF6"/>
<path d="M56.8341 37.3023H58.2436C59.0225 37.3023 59.6531 36.8293 59.6531 36.2451C59.6531 35.6609 59.0225 35.188 58.2436 35.188H56.8341C56.0551 35.188 55.4245 35.6609 55.4245 36.2451C55.4245 36.8293 56.0551 37.3023 56.8341 37.3023Z" fill="#F00CF6"/>
<path d="M55.4245 40.1218V38.7123C55.4245 37.9333 54.9516 37.3027 54.3674 37.3027C53.7831 37.3027 53.3102 37.9333 53.3102 38.7123V40.1218C53.3102 40.9007 53.7831 41.5313 54.3674 41.5313C54.9516 41.5313 55.4245 40.8984 55.4245 40.1218Z" fill="#F00CF6"/>
<path d="M35.6408 2.71826C35.1401 2.71826 34.7347 3.02229 34.7347 3.39785C34.7347 3.77342 35.1401 4.07745 35.6408 4.07745H36.547C37.0477 4.07745 37.4531 3.77342 37.4531 3.39785C37.4531 3.02229 37.0477 2.71826 36.547 2.71826H35.6408Z" fill="#F00CF6"/>
<path d="M38.8122 0.906122C38.8122 0.405371 38.5082 0 38.1327 0C37.7571 0 37.4531 0.405371 37.4531 0.906122V1.81224C37.4531 2.313 37.7571 2.71837 38.1327 2.71837C38.5082 2.71837 38.8122 2.313 38.8122 1.81224V0.906122Z" fill="#F00CF6"/>
<path d="M39.7184 4.07745H40.6245C41.1253 4.07745 41.5307 3.77342 41.5307 3.39785C41.5307 3.02229 41.1253 2.71826 40.6245 2.71826H39.7184C39.2177 2.71826 38.8123 3.02229 38.8123 3.39785C38.8123 3.77342 39.2177 4.07745 39.7184 4.07745Z" fill="#F00CF6"/>
<path d="M38.8122 5.88988V4.98376C38.8122 4.48301 38.5082 4.07764 38.1327 4.07764C37.7571 4.07764 37.4531 4.48301 37.4531 4.98376V5.88988C37.4531 6.39063 37.7571 6.796 38.1327 6.796C38.5082 6.796 38.8122 6.38914 38.8122 5.88988Z" fill="#F00CF6"/>
<path d="M4.88299 12.3838C4.27096 12.3838 3.77551 12.7554 3.77551 13.2144C3.77551 13.6734 4.27096 14.045 4.88299 14.045H5.99048C6.60251 14.045 7.09796 13.6734 7.09796 13.2144C7.09796 12.7554 6.60251 12.3838 5.99048 12.3838H4.88299Z" fill="#F00CF6"/>
<path d="M8.75919 10.169C8.75919 9.55698 8.38759 9.06152 7.92857 9.06152C7.46955 9.06152 7.09796 9.55698 7.09796 10.169V11.2765C7.09796 11.8885 7.46955 12.384 7.92857 12.384C8.38759 12.384 8.75919 11.8885 8.75919 11.2765V10.169Z" fill="#F00CF6"/>
<path d="M9.86667 14.045H10.9742C11.5862 14.045 12.0816 13.6734 12.0816 13.2144C12.0816 12.7554 11.5862 12.3838 10.9742 12.3838H9.86667C9.25464 12.3838 8.75919 12.7554 8.75919 13.2144C8.75919 13.6734 9.25464 14.045 9.86667 14.045Z" fill="#F00CF6"/>
<path d="M8.75919 16.2604V15.1529C8.75919 14.5409 8.38759 14.0454 7.92857 14.0454C7.46955 14.0454 7.09796 14.5409 7.09796 15.1529V16.2604C7.09796 16.8724 7.46955 17.3679 7.92857 17.3679C8.38759 17.3679 8.75919 16.8706 8.75919 16.2604Z" fill="#F00CF6"/>
</svg>
