<svg width="73" height="73" viewBox="0 0 73 73" fill="none" xmlns="http://www.w3.org/2000/svg">
<path d="M53.7115 47.8354C54.1629 47.6136 54.3887 47.2255 54.3887 46.7264V32.3098C54.3887 31.6444 53.8243 31.0899 53.1472 31.0899C52.47 31.0899 51.9057 31.6444 51.9057 32.3098V46.0056L37.6849 52.6594V34.7495L53.655 27.2639C54.2758 26.9867 54.5015 26.2659 54.2194 25.6559C54.2194 25.4896 54.0501 25.3232 53.8808 25.2123C53.8243 25.1569 53.7679 25.1569 53.7115 25.1014L37.0642 17.3386C36.7256 17.1723 36.3306 17.1723 35.992 17.3386L19.2883 25.1014C19.2883 25.1014 19.2883 25.1014 19.2318 25.1014C19.1754 25.1014 19.1754 25.1014 19.119 25.1569C18.7804 25.3787 18.5547 25.7668 18.5547 26.155V46.7264C18.5547 47.17 18.8368 47.6136 19.2318 47.8354L35.992 55.6536C36.1613 55.7091 36.3306 55.7645 36.4999 55.7645C36.6692 55.7645 36.8385 55.7091 37.0078 55.6536C37.0078 55.6536 37.0078 55.6536 37.0642 55.6536L53.7115 47.8354ZM21.0376 28.0957L26.1729 30.48C26.7937 30.7572 27.5273 30.5354 27.8094 29.9255C28.0916 29.3155 27.8659 28.5947 27.2451 28.3175L22.6742 26.2104L36.4999 19.7229L50.3256 26.2104L36.4999 32.6979L32.2111 30.6463C31.5903 30.3691 30.8567 30.5909 30.5746 31.2008C30.2924 31.8107 30.5181 32.5316 31.1389 32.8088L35.2584 34.7495V52.604L21.0376 45.9501V28.0957Z" fill="#28B5FF"/>
<path d="M41.2966 6.96881L44.3439 5.30535C44.9082 4.97266 45.1339 4.25183 44.7953 3.6419C44.4567 3.08741 43.7231 2.86561 43.1024 3.19831L36.782 6.69157C36.4435 6.85792 36.2177 7.19061 36.1613 7.57875C36.1049 7.91144 36.2177 8.29958 36.4999 8.57682L41.5787 13.9553C41.8044 14.2326 42.143 14.3435 42.4816 14.3435C42.7638 14.3435 43.1024 14.2326 43.3281 14.0108C43.836 13.5672 43.836 12.7909 43.3845 12.2919L40.563 9.29766C54.1629 11.2384 64.4899 22.8271 64.4899 36.5229C64.4899 49.4425 55.1787 60.754 42.3688 63.471C41.6916 63.6373 41.2966 64.2473 41.4094 64.9126C41.5223 65.4671 42.0302 65.8553 42.5945 65.8553C42.7073 65.8553 42.7638 65.8553 42.8766 65.7998C56.8152 62.861 66.9165 50.5514 66.9165 36.5229C66.9729 21.7736 55.9123 9.24221 41.2966 6.96881Z" fill="#28B5FF"/>
<path d="M31.4775 59.0349C31.0261 58.5358 30.236 58.5358 29.7281 58.9794C29.2202 59.423 29.2202 60.1993 29.6717 60.6983L32.4933 63.6926C18.8933 61.6964 8.5099 50.1631 8.5099 36.4118C8.5099 23.4369 17.8775 12.0699 30.8003 9.40836C31.5339 9.29746 31.929 8.63207 31.8161 8.02214C31.6468 7.35676 31.0261 6.91317 30.3489 7.07951C16.2974 9.90739 6.08334 22.2724 6.08334 36.4118C6.08334 51.2166 17.1439 63.6926 31.7032 66.0214L28.6559 67.6849C28.0916 68.0176 27.8659 68.7384 28.2045 69.3483C28.4302 69.7365 28.8252 69.9583 29.2767 69.9583C29.5024 69.9583 29.6717 69.9028 29.8974 69.7919L36.2742 66.2986C36.6128 66.1323 36.8385 65.7996 36.8949 65.4115C36.9514 65.0233 36.8385 64.6906 36.5563 64.4134L31.4775 59.0349Z" fill="#28B5FF"/>
</svg>
