<svg width="70" height="94" viewBox="0 0 70 94" fill="none" xmlns="http://www.w3.org/2000/svg">
<g clip-path="url(#clip0_629:1575)">
<path d="M68.0935 45.3705C67.518 45.5878 67.1583 46.1671 67.1583 46.7827V75.6055C67.1583 75.6055 67.1583 75.6417 67.1223 75.6417L36.4029 90.379C36.3669 90.379 36.3669 90.379 36.3669 90.3428V51.0554C36.3669 51.0554 36.3669 51.0192 36.4029 51.0192L69.1727 35.2681C69.8561 34.9422 70.1079 34.1456 69.7842 33.3852L69.6763 33.1679V33.0955C69.6403 33.0593 69.5683 32.9869 69.4604 32.9144L69.3885 32.842C69.3165 32.8058 69.2446 32.7696 69.1727 32.6972L53.705 25.3829C53.3094 25.2018 52.8777 25.2018 52.482 25.3829C51.4388 25.8898 51.4388 27.4106 52.482 27.9175L65.3597 34.0369C65.3957 34.0369 65.3957 34.0731 65.3597 34.1094L35.1079 48.6656H35.0719L26.0072 44.2118C25.7914 44.1032 25.5755 44.067 25.3597 44.067C24.8201 44.067 24.3525 44.3567 24.1367 44.8274C23.9568 45.1895 23.9568 45.5878 24.0647 45.9499C24.1367 46.2033 24.3165 46.5292 24.7482 46.7103L33.5971 51.0554C33.5971 51.0554 33.6331 51.0554 33.6331 51.0916V90.2342C33.6331 90.2704 33.5971 90.2704 33.5971 90.2704L2.8777 75.5331C2.8777 75.5331 2.84173 75.5331 2.84173 75.4969V36.3544C2.84173 36.3181 2.8777 36.3181 2.8777 36.3181L14.6763 41.9306C14.8921 42.0393 15.1079 42.0755 15.3237 42.0755C15.8633 42.0755 16.3309 41.7858 16.5468 41.3151C16.8705 40.5547 16.6187 39.758 15.9353 39.4322L4.7482 34.1456C4.71223 34.1456 4.71223 34.1094 4.7482 34.0731L14.6043 29.3297C15.6475 28.8228 15.6475 27.3382 14.6043 26.795C14.2086 26.614 13.777 26.614 13.3813 26.795L0.647482 32.9144H0.57554C0.251799 33.1679 0 33.6024 0 34.0007V76.4383C0 76.9453 0.323741 77.4884 0.791367 77.7781L34.4245 93.8551C34.6403 93.9275 34.8921 94 35.036 94C35.2158 94 35.4676 93.9275 35.7194 93.8189L35.8993 93.7465H35.9352L69.2086 77.7419C69.7482 77.4884 69.964 77.0539 69.964 76.4383V46.7103C70 45.7688 69.0288 45.0084 68.0935 45.3705Z" fill="#28B5FF"/>
<path d="M16.403 23.7899C21.2592 28.2436 26.1153 32.6974 30.9714 37.1512C32.2663 38.3461 34.2448 38.4185 35.5397 37.1512C44.8922 27.9178 54.2807 18.7205 63.6333 9.4871C64.9642 8.18356 66.2951 6.8438 67.6261 5.54026C70.6117 2.60729 66.0433 -1.99133 63.0577 0.941648C53.7052 10.1751 44.3167 19.3723 34.9642 28.6057C33.6333 29.9093 32.3023 31.249 30.9714 32.5526C32.4822 32.5526 34.0289 32.5526 35.5397 32.5526C30.6836 28.0988 25.8275 23.645 20.9714 19.1913C17.9138 16.3669 13.3095 20.9655 16.403 23.7899Z" fill="#28B5FF"/>
</g>
<defs>
<clipPath id="clip0_629:1575">
<rect width="70" height="94" fill="white"/>
</clipPath>
</defs>
</svg>
