<svg width="80" height="106" viewBox="0 0 80 106" fill="none" xmlns="http://www.w3.org/2000/svg">
<g clip-path="url(#clip0_629:1557)">
<path d="M79.0987 57.4593C78.6266 57.4593 78.1975 57.8881 78.1975 58.3598V78.6421L56.309 89.062V61.3614L79.4421 50.3412C79.8713 50.1696 80.0429 49.6122 79.8284 49.1405L79.7425 48.969V48.9261C79.6996 48.9261 79.6996 48.8832 79.6567 48.8404L79.5708 48.7975C79.5279 48.7975 79.485 48.7546 79.3992 48.7117L71.7168 45.0669L69.6567 46.0531L77.0816 49.5693L55.4936 59.8606L49.0558 56.7303C48.9271 56.6874 48.7983 56.6446 48.6266 56.6446C48.2833 56.6446 47.9829 56.8161 47.8541 57.1162C47.7683 57.3306 47.7254 57.5879 47.8112 57.8452C47.8541 57.9738 47.9829 58.1883 48.2404 58.3169L54.5494 61.3614V88.9763L49.0129 86.3177V88.3331L55.0644 91.206C55.2361 91.2489 55.3648 91.2918 55.4507 91.2918C55.5365 91.2918 55.7082 91.2489 55.8799 91.1632L56.0086 91.1203H56.0515L79.4421 79.9285C79.7854 79.757 79.9142 79.4997 79.9142 79.1138V58.3598C80 57.8881 79.6138 57.4593 79.0987 57.4593Z" fill="#28B5FF"/>
<path d="M48.6695 86.146L49.0558 86.3175V73.0675C49.0558 72.5958 48.6266 72.167 48.1545 72.167C47.6824 72.167 47.2532 72.5958 47.2532 73.0675V93.3499L25.3648 103.77V76.0691L48.4979 65.0489C48.927 64.8774 49.0987 64.3199 48.8841 63.8483L48.7983 63.6767V63.6339C48.7554 63.6339 48.7554 63.591 48.7124 63.5481L48.6266 63.5052C48.5837 63.5052 48.5408 63.4623 48.4979 63.4195L40.5579 59.646L38.4979 60.6322L46.1803 64.2771L24.5923 74.5683L18.1545 71.4381C18.0257 71.3952 17.897 71.3523 17.7253 71.3523C17.382 71.3523 17.0815 71.5238 16.9528 71.824C16.867 72.0384 16.824 72.2957 16.9099 72.553C16.9528 72.6816 17.0815 72.896 17.3391 73.0246L23.6481 76.0691V103.684L1.75966 93.2641V65.6492L10.2575 69.6371C10.3863 69.68 10.515 69.7229 10.6867 69.7229C11.03 69.7229 11.3305 69.5513 11.4592 69.2512C11.6738 68.7795 11.5021 68.2649 11.073 68.0505L2.96137 64.2342L9.95708 60.8895L7.897 59.9462L0.386266 63.5052H0.343348C0.128755 63.6767 0 63.934 0 64.1484V93.7787C0 94.0788 0.214592 94.4219 0.515021 94.6363L24.1631 105.914C24.3348 105.957 24.4635 106 24.5494 106C24.6352 106 24.8069 105.957 24.9785 105.871L25.1073 105.828H25.1502L48.5408 94.6363C48.8841 94.4648 49.0129 94.2075 49.0129 93.8216V88.3329L48.6695 88.1614V86.146Z" fill="#28B5FF"/>
<path d="M48.6697 86.1465L48.7126 88.1619L49.0559 88.3334V86.318L48.6697 86.1465Z" fill="#28B5FF"/>
<path d="M55.5364 53.8147C55.4505 53.8147 55.2789 53.7718 55.1501 53.729L48.7552 50.6845L48.7123 48.6691L54.6351 51.4992V23.8843L48.3261 20.8398C48.0686 20.7112 47.9398 20.4968 47.8969 20.3681C47.811 20.1537 47.854 19.8964 47.9398 19.6392C48.0686 19.339 48.369 19.1675 48.7123 19.1675C48.8411 19.1675 49.0128 19.2104 49.1415 19.2532L55.5793 22.3835L77.1673 12.0922L55.5793 1.80097L33.9055 12.0922L42.06 15.9086C42.4892 16.123 42.6608 16.6375 42.4462 17.1092C42.3175 17.4094 42.0171 17.5809 41.6737 17.5809C41.5449 17.5809 41.3733 17.538 41.2445 17.4951L32.7467 13.5073V19.8536L30.9441 18.9531V12.0065C30.9441 11.7921 31.0728 11.5348 31.2874 11.3633H31.3304L55.193 0.0857605C55.3218 0 55.4505 0 55.5793 0C55.708 0 55.8368 0.0428803 55.9655 0.0857605L79.4849 11.2346C79.5278 11.2775 79.6136 11.3204 79.6565 11.3204L79.7424 11.3633C79.7853 11.4061 79.8282 11.4061 79.8282 11.449V11.4919L79.914 11.6634C80.1286 12.1351 79.957 12.6497 79.5278 12.8641L56.3947 23.8843V51.585L78.2831 41.165V20.8827C78.2831 20.411 78.7123 19.9822 79.1844 19.9822C79.6565 19.9822 80.0857 20.411 80.0857 20.8827V41.6367C80.0857 42.0227 79.957 42.2799 79.6136 42.4515L56.2231 53.6432H56.1801L56.0514 53.6861C55.7939 53.7718 55.6222 53.8147 55.5364 53.8147Z" fill="#28B5FF"/>
<path d="M24.5923 68.5227C24.5064 68.5227 24.3348 68.4799 24.206 68.437L0.515022 57.2023C0.214592 57.0308 0 56.6878 0 56.3447V26.7145C0 26.5001 0.128755 26.2428 0.343348 26.0713H0.386266L24.2489 14.7938C24.3777 14.708 24.5064 14.708 24.6352 14.708C24.764 14.708 24.8927 14.7509 25.0215 14.7938L48.5408 25.9426C48.5837 25.9855 48.6695 26.0284 48.6695 26.0284L48.7554 26.0713C48.7983 26.1142 48.8412 26.1142 48.8412 26.157V26.1999L48.927 26.3714C49.1416 26.8431 48.97 27.3577 48.5408 27.5721L25.4077 38.5923V66.293L47.2961 55.8731V35.5907C47.2961 35.119 47.7253 34.6902 48.1974 34.6902C48.6695 34.6902 49.0987 35.119 49.0987 35.5907V56.3447C49.0987 56.7307 48.97 56.9879 48.6266 57.1595L25.2361 68.3512H25.1931L25.0644 68.3941C24.8498 68.4799 24.6781 68.5227 24.5923 68.5227ZM1.80258 55.7873L23.691 66.2072V38.5923L17.382 35.5478C17.1245 35.4192 16.9957 35.2048 16.9528 35.0761C16.867 34.8617 16.9099 34.6044 16.9957 34.3472C17.1245 34.047 17.4249 33.8755 17.7682 33.8755C17.897 33.8755 18.0687 33.9184 18.1974 33.9612L24.6352 37.0915L46.2232 26.8002L24.6352 16.509L3.04721 26.8002L11.1588 30.6166C11.588 30.831 11.7597 31.3455 11.5451 31.8172C11.4163 32.1174 11.1159 32.2889 10.7725 32.2889C10.6438 32.2889 10.4721 32.246 10.3433 32.2032L1.80258 28.1724V55.7873Z" fill="#28B5FF"/>
<path d="M40.3863 48.2804C40.9425 45.7838 39.818 43.4096 37.8745 42.9773C35.931 42.545 33.9046 44.2184 33.3483 46.715C32.792 49.2115 33.9166 51.5858 35.86 52.0181C37.8035 52.4503 39.83 50.7769 40.3863 48.2804Z" fill="#28B5FF"/>
<path d="M71.3355 35.1422C71.8918 32.6456 70.7672 30.2714 68.8237 29.8391C66.8802 29.4068 64.8538 31.0802 64.2975 33.5768C63.7412 36.0733 64.8658 38.4476 66.8093 38.8799C68.7528 39.3121 70.7792 37.6387 71.3355 35.1422Z" fill="#28B5FF"/>
<path d="M40.6836 84.7047C41.2399 82.2082 40.1153 79.8339 38.1719 79.4016C36.2284 78.9693 34.2019 80.6428 33.6457 83.1393C33.0894 85.6358 34.2139 88.0101 36.1574 88.4424C38.1009 88.8746 40.1274 87.2012 40.6836 84.7047Z" fill="#28B5FF"/>
<path d="M71.6328 71.5665C72.1891 69.07 71.0646 66.6957 69.1211 66.2634C67.1776 65.8311 65.1512 67.5045 64.5949 70.0011C64.0386 72.4976 65.1632 74.8719 67.1066 75.3042C69.0501 75.7365 71.0766 74.063 71.6328 71.5665Z" fill="#28B5FF"/>
</g>
<defs>
<clipPath id="clip0_629:1557">
<rect width="80" height="106" fill="white"/>
</clipPath>
</defs>
</svg>
