<svg width="81" height="74" viewBox="0 0 81 74" fill="none" xmlns="http://www.w3.org/2000/svg">
<path d="M57.4021 48.3134C57.8535 48.0916 58.0793 47.7035 58.0793 47.2044V32.7878C58.0793 32.1224 57.5149 31.5679 56.8378 31.5679C56.1606 31.5679 55.5963 32.1224 55.5963 32.7878V46.4836L41.3755 53.1374V35.2275L57.3456 27.742C57.9664 27.4647 58.1921 26.7439 57.91 26.134C57.91 25.9676 57.7407 25.8013 57.5714 25.6904C57.5149 25.6349 57.4585 25.6349 57.4021 25.5795L40.7548 17.8167C40.4162 17.6503 40.0212 17.6503 39.6826 17.8167L22.9789 25.5795C22.9789 25.5795 22.9789 25.5795 22.9224 25.5795C22.866 25.5795 22.866 25.5795 22.8096 25.6349C22.471 25.8567 22.2453 26.2449 22.2453 26.633V47.2044C22.2453 47.648 22.5274 48.0916 22.9224 48.3134L39.6826 56.1317C39.8519 56.1871 40.0212 56.2426 40.1905 56.2426C40.3598 56.2426 40.5291 56.1871 40.6984 56.1317C40.6984 56.1317 40.6983 56.1317 40.7548 56.1317L57.4021 48.3134ZM24.7282 28.5737L29.8635 30.958C30.4843 31.2352 31.2179 31.0134 31.5 30.4035C31.7822 29.7936 31.5564 29.0727 30.9357 28.7955L26.3648 26.6884L40.1905 20.2009L54.0162 26.6884L40.1905 33.1759L35.9017 31.1243C35.2809 30.8471 34.5473 31.0689 34.2652 31.6788C33.983 32.2888 34.2087 33.0096 34.8295 33.2868L38.949 35.2275V53.082L24.7282 46.4282V28.5737Z" fill="#DB00E4"/>
<path d="M10.424 39.9883L8.02851 37.4753C7.5611 37.0164 6.80641 36.9849 6.30489 37.4698C5.85693 37.9404 5.83257 38.7064 6.31458 39.2199L11.3246 44.4207C11.573 44.7047 11.9527 44.8366 12.3422 44.7907C12.6782 44.7591 13.0239 44.5496 13.2187 44.2053L17.0994 37.9075C17.3088 37.6177 17.3283 37.2619 17.2407 36.9349C17.1676 36.6623 16.9729 36.364 16.7002 36.2034C16.1403 35.8276 15.3905 36.0285 15.0253 36.5937L12.8634 40.0941C11.218 26.4553 19.7391 13.4808 32.9682 9.93605C45.4475 6.59223 58.7835 12.6585 64.7234 24.3288C65.0593 24.9398 65.7507 25.1635 66.3642 24.8823C66.8706 24.6298 67.1141 24.0387 66.968 23.4936C66.9388 23.3846 66.9242 23.3301 66.8414 23.2354C60.3952 10.5324 45.8907 3.96134 32.3402 7.59218C18.0788 11.3551 8.83709 25.2821 10.424 39.9883Z" fill="#DB00E4"/>
<path d="M63.2573 35.9974C62.8921 36.5627 63.0966 37.3258 63.6565 37.7015C64.2164 38.0773 64.9663 37.8764 65.3315 37.3112L67.4934 33.8108C69.0852 47.464 60.6323 60.4786 47.3496 64.0377C34.8167 67.3959 21.4125 61.2894 15.497 49.4958C15.2 48.8159 14.4551 48.6066 13.8952 48.8734C13.2963 49.2092 13.0284 49.9236 13.3644 50.5346C19.7327 63.3754 34.32 70.0411 47.9776 66.3816C62.2779 62.5498 71.4661 48.6371 69.9473 33.9711L72.3428 36.4841C72.8102 36.9431 73.5649 36.9745 74.0664 36.4896C74.3829 36.1711 74.4949 35.7322 74.3781 35.2961C74.3197 35.078 74.2223 34.9289 74.0568 34.7395L69.0321 29.4842C68.7838 29.2002 68.404 29.0683 68.0145 29.1142C67.625 29.1602 67.3328 29.3553 67.1381 29.6996L63.2573 35.9974Z" fill="#DB00E4"/>
</svg>
