<svg width="83" height="91" viewBox="0 0 83 91" fill="none" xmlns="http://www.w3.org/2000/svg">
<path d="M41.5426 91C41.372 91 41.0735 90.9148 40.8176 90.8296L0.938335 71.9139C0.383864 71.573 0 70.934 0 70.3375V20.4068C0 19.9382 0.25591 19.427 0.682425 19.1287H0.767729L40.9029 0.170412C41.1588 0.042603 41.372 0 41.628 0C41.8839 0 42.0971 0.042603 42.353 0.170412L81.9764 18.9583C82.0617 19.0435 82.1896 19.0861 82.2323 19.1287L82.3176 19.2139C82.4455 19.2992 82.4882 19.3418 82.5735 19.427V19.5122L82.7014 19.7678C83.0853 20.6625 82.7867 21.5997 81.9764 21.9831L43.1208 40.4728V86.7823L79.6305 69.4003V35.3605C79.6305 34.4658 80.3983 33.699 81.2939 33.699C82.1896 33.699 82.9573 34.4658 82.9573 35.3605V70.3375C82.9573 71.1044 82.6588 71.573 82.0617 71.8713L42.6089 90.7444H42.5663L42.353 90.8296C42.0545 90.9148 41.7559 91 41.5426 91ZM3.36948 69.2725L39.8792 86.6545V40.4728L29.3016 35.4031C28.7898 35.1901 28.5766 34.8066 28.4913 34.5084C28.3633 34.0824 28.3633 33.6138 28.5766 33.1877C28.8325 32.6339 29.3443 32.2931 30.0267 32.2931C30.2826 32.2931 30.5385 32.3357 30.7944 32.4635L41.5426 37.7037L77.5406 20.5346L41.5426 3.40824L5.54471 20.5772L18.9373 26.8399C19.7477 27.2233 20.0462 28.1606 19.6624 29.0552C19.4065 29.6091 18.8947 29.9499 18.2122 29.9499C17.9563 29.9499 17.7004 29.9073 17.4445 29.7795L3.36948 23.1334V69.2725Z" fill="#28B5FF"/>
<path d="M60.0533 68.378C63.4228 68.7188 66.7923 67.3129 69.4367 64.7141C69.4367 64.7141 69.4367 64.7141 69.4793 64.7141C69.4793 64.7141 69.4793 64.7141 69.4793 64.6289C72.1237 62.0727 74.171 58.4089 74.8534 54.1486C75.0667 52.7427 75.152 51.3794 75.1093 50.0161C75.024 49.2066 74.4695 48.6528 73.8298 48.8658C73.1474 48.9936 72.6355 49.7605 72.7208 50.5273C72.7635 51.635 72.6782 52.7853 72.5076 53.9356C72.0384 56.8326 70.8015 59.4314 69.0954 61.4763L66.4084 56.9178C67.0482 55.9379 67.56 54.7876 67.7732 53.5095C68.2851 50.3995 67.0055 47.6303 64.745 46.7357L65.726 40.7712C67.9439 41.3251 69.7779 42.731 71.0574 44.9037C71.3986 45.5002 72.1664 45.5428 72.7208 45.0742C73.2327 44.5629 73.4033 43.6257 73.062 42.9866C71.1854 39.8766 68.3704 37.9595 65.0862 37.6612C58.3046 37.0222 51.6509 43.4126 50.2434 51.8906C48.8786 60.2834 53.2717 67.7389 60.0533 68.378ZM52.4613 53.5095L57.2383 53.9782C57.2809 56.9178 59.0297 59.3462 61.5035 59.5592C62.5271 59.6444 63.5507 59.3462 64.4464 58.8349L67.1335 63.3934C65.1288 64.8419 62.8257 65.6514 60.5225 65.4384C55.4469 64.9271 52.0348 59.7722 52.4613 53.5095ZM65.4701 53.2539C65.1288 55.2563 63.5934 56.7474 61.9726 56.6196C60.3519 56.4491 59.3282 54.745 59.6694 52.7001C60.0107 50.6977 61.5461 49.2066 63.1669 49.3345C64.7876 49.5049 65.8113 51.2516 65.4701 53.2539ZM63.4228 40.5156L62.4418 46.48C60.4372 46.8209 58.5605 48.6528 57.7075 50.996L52.9305 50.5273C54.4233 44.9037 58.7311 40.7286 63.4228 40.5156Z" fill="#28B5FF"/>
</svg>
